<?xml version="1.0" encoding="UTF-8"?>
<svg width="256" height="256" viewBox="0 0 256 256" fill="none" xmlns="http://www.w3.org/2000/svg">
  <!-- Background -->
  <rect width="256" height="256" rx="40" fill="#1E293B"/>
  
  <!-- Casino Chip Border -->
  <circle cx="128" cy="128" r="100" fill="#334155" stroke="#0EA5E9" stroke-width="4"/>
  <circle cx="128" cy="128" r="90" fill="#1E293B" stroke="#0EA5E9" stroke-width="2" stroke-dasharray="10 5"/>
  
  <!-- Gems -->
  <path d="M100 80L115 105L90 115L75 90L100 80Z" fill="#60A5FA" stroke="#0EA5E9" stroke-width="1"/>
  <path d="M165 90L180 115L155 125L140 100L165 90Z" fill="#818CF8" stroke="#6366F1" stroke-width="1"/>
  <path d="M128 160L145 180L128 190L111 180L128 160Z" fill="#34D399" stroke="#10B981" stroke-width="1"/>
  
  <!-- Mine -->
  <circle cx="128" cy="110" r="15" fill="#475569"/>
  <circle cx="128" cy="110" r="7" fill="#0F172A"/>
  <line x1="128" y1="87" x2="128" y2="95" stroke="#475569" stroke-width="3" stroke-linecap="round"/>
  <line x1="128" y1="125" x2="128" y2="133" stroke="#475569" stroke-width="3" stroke-linecap="round"/>
  <line x1="105" y1="110" x2="113" y2="110" stroke="#475569" stroke-width="3" stroke-linecap="round"/>
  <line x1="143" y1="110" x2="151" y2="110" stroke="#475569" stroke-width="3" stroke-linecap="round"/>
  <line x1="112" y1="94" x2="118" y2="100" stroke="#475569" stroke-width="3" stroke-linecap="round"/>
  <line x1="138" y1="120" x2="144" y2="126" stroke="#475569" stroke-width="3" stroke-linecap="round"/>
  <line x1="112" y1="126" x2="118" y2="120" stroke="#475569" stroke-width="3" stroke-linecap="round"/>
  <line x1="138" y1="100" x2="144" y2="94" stroke="#475569" stroke-width="3" stroke-linecap="round"/>
  
  <!-- Sparkles on gems -->
  <circle cx="97" cy="85" r="2" fill="white"/>
  <circle cx="162" cy="95" r="2" fill="white"/>
  <circle cx="125" cy="166" r="2" fill="white"/>
</svg> 