<svg xmlns="http://www.w3.org/2000/svg" width="512" height="128" fill="none" viewBox="0 0 512 128"><rect width="512" height="128" fill="#1E293B" rx="20"/><g transform="translate(64, 64) scale(0.8)"><circle cx="0" cy="0" r="56" fill="#334155" stroke="#0EA5E9" stroke-width="3"/><circle cx="0" cy="0" r="50" fill="#1E293B" stroke="#0EA5E9" stroke-dasharray="8 4" stroke-width="1.5"/><path fill="#60A5FA" stroke="#0EA5E9" stroke-width="1" d="M-20 -25L-12 -10L-24 -5L-32 -20L-20 -25Z"/><path fill="#818CF8" stroke="#6366F1" stroke-width="1" d="M20 -20L28 -5L16 0L8 -15L20 -20Z"/><path fill="#34D399" stroke="#10B981" stroke-width="1" d="M0 20L10 30L0 35L-10 30L0 20Z"/><circle cx="0" cy="-5" r="10" fill="#475569"/><circle cx="0" cy="-5" r="5" fill="#0F172A"/><line x1="0" x2="0" y1="-18" y2="-15" stroke="#475569" stroke-linecap="round" stroke-width="2.5"/><line x1="0" x2="0" y1="5" y2="8" stroke="#475569" stroke-linecap="round" stroke-width="2.5"/><line x1="-13" x2="-10" y1="-5" y2="-5" stroke="#475569" stroke-linecap="round" stroke-width="2.5"/><line x1="10" x2="13" y1="-5" y2="-5" stroke="#475569" stroke-linecap="round" stroke-width="2.5"/><line x1="-9" x2="-7" y1="-14" y2="-12" stroke="#475569" stroke-linecap="round" stroke-width="2.5"/><line x1="7" x2="9" y1="2" y2="4" stroke="#475569" stroke-linecap="round" stroke-width="2.5"/><line x1="-9" x2="-7" y1="4" y2="2" stroke="#475569" stroke-linecap="round" stroke-width="2.5"/><line x1="7" x2="9" y1="-12" y2="-14" stroke="#475569" stroke-linecap="round" stroke-width="2.5"/></g><text x="170" y="54" fill="#FFF" font-family="Arial, sans-serif" font-size="32" font-weight="bold">APT CASINO</text><text x="175" y="84" fill="#94A3B8" font-family="Arial, sans-serif" font-size="16" font-weight="normal">MINES GAME</text></svg>